<?xml version="1.0" encoding="UTF-8" standalone="no"?>
<!-- Created with matplotlib (http://matplotlib.org/) -->

<svg
   xmlns:dc="http://purl.org/dc/elements/1.1/"
   xmlns:cc="http://creativecommons.org/ns#"
   xmlns:rdf="http://www.w3.org/1999/02/22-rdf-syntax-ns#"
   xmlns:svg="http://www.w3.org/2000/svg"
   xmlns="http://www.w3.org/2000/svg"
   xmlns:sodipodi="http://sodipodi.sourceforge.net/DTD/sodipodi-0.dtd"
   xmlns:inkscape="http://www.inkscape.org/namespaces/inkscape"
   height="288pt"
   version="1.1"
   viewBox="0 0 432 288"
   width="432pt"
   id="svg2"
   inkscape:version="0.91 r13725"
   sodipodi:docname="muscles_black_outlines.svg">
  <metadata
     id="metadata428">
    <rdf:RDF>
      <cc:Work
         rdf:about="">
        <dc:format>image/svg+xml</dc:format>
        <dc:type
           rdf:resource="http://purl.org/dc/dcmitype/StillImage" />
      </cc:Work>
    </rdf:RDF>
  </metadata>
  <sodipodi:namedview
     pagecolor="#ffffff"
     bordercolor="#666666"
     borderopacity="1"
     objecttolerance="10"
     gridtolerance="10"
     guidetolerance="10"
     inkscape:pageopacity="0"
     inkscape:pageshadow="2"
     inkscape:window-width="1466"
     inkscape:window-height="936"
     id="namedview426"
     showgrid="false"
     inkscape:zoom="0.61111111"
     inkscape:cx="270"
     inkscape:cy="180"
     inkscape:window-x="65"
     inkscape:window-y="24"
     inkscape:window-maximized="0"
     inkscape:current-layer="axes_1" />
  <defs
     id="defs4">
    <style
       type="text/css"
       id="style6">
*{stroke-linecap:butt;stroke-linejoin:round;stroke-miterlimit:100000;}
  </style>
  </defs>
  <g
     id="figure_1">
    <g
       id="axes_1">
      <g
         id="patch_2">
        <path
           d="M 54 252  L 388.8 252  L 388.8 28.8  L 54 28.8  z "
           style="fill:#ffffff;"
           id="path14" />
      </g>
      <g
         id="line2d_1">
        <path
           clip-path="url(#p4973f9c6d7)"
           d="M 149.896286 161.618308  L 155.815071 163.107159  L 161.725705 163.261091  L 168.071143 164.22863  L 173.26823 166.448571  L 177.455009 169.431184  L 181.224 172.781714  L 186.305786 175.008057  L 190.416054 178.350252  L 195.020433 180.952831  L 198.358004 184.880571  L 195.850148 189.495824  L 193.293241 193.914857  L 189.94275 197.688  L 186.572104 201.456312  L 182.886043 205.090041  L 179.94608 209.189633  L 175.763571 212.180057  L 171.142634 214.78819  L 166.96239 217.772457  L 162.78675 220.752  L 157.36523 222.967218  L 153.048321 225.688381  L 147.564643 227.811617  L 143.132254 230.418502  L 136.564071 230.788424  L 129.389786 231.158306  L 123.471 231.88875  L 117.943121 233.449055  L 111.326529 234.502015  L 104.643699 234.139912  L 98.121857 234.127091  L 94.617706 230.158286  L 96.295902 224.897143  L 97.989 219.636  L 99.708896 214.379688  L 102.554541 209.993524  L 104.839597 205.355065  L 107.597893 201.055929  L 108.445461 195.190286  L 111.699857 191.080571  L 115.14285 187.644  L 118.1142 183.5024  L 121.385534 179.486571  L 124.31855 175.376176  L 127.670067 171.658629  L 131.016997 167.934252  L 134.713314 164.275006  L 139.374 161.62725  L 149.896286 161.618308  "
           style="fill:none;stroke:#000000;stroke-linecap:square;"
           id="path17" />
      </g>
      <g
         id="line2d_2">
        <path
           clip-path="url(#p4973f9c6d7)"
           d="M 202.554994 66.745959  L 210.649442 69.480857  L 215.517704 75.482204  L 218.016025 83.354939  L 220.089782 91.599673  L 223.464559 98.728408  L 226.382143 106.229143  L 228.011756 114.845878  L 229.334418 123.681827  L 231.28562 132.081744  L 233.529998 140.324082  L 233.531075 149.699833  L 232.673344 159.045551  L 230.884577 167.654694  L 224.730918 172.371502  L 217.01002 170.275396  L 216.881054 175.255641  L 214.203752 182.044478  L 211.77145 188.718245  L 202.037969 188.714871  L 192.550071 186.882286  L 184.742816 183.880558  L 176.72299 180.882963  L 169.540163 177.164988  L 161.938837 173.85096  L 154.479501 170.14178  L 149.03046 164.938197  L 142.312468 160.847496  L 134.773276 157.500117  L 128.548663 152.71265  L 124.726788 146.359127  L 120.137752 140.76852  L 117.039338 134.292367  L 114.689459 127.74646  L 111.041006 120.788353  L 108.414643 113.661551  L 109.248846 106.532816  L 112.259594 99.776694  L 119.439735 95.762557  L 127.243484 93.702612  L 133.806062 89.179236  L 138.959576 84.600458  L 146.497041 80.882759  L 153.679867 79.398708  L 161.556462 76.420049  L 168.671248 72.697687  L 173.276585 66.746059  L 181.574173 66.008857  L 189.584267 66.372  L 202.554994 66.745959  "
           style="fill:none;stroke:#000000;stroke-linecap:square;"
           id="path20" />
      </g>
      <g
         id="line2d_3">
        <path
           clip-path="url(#p4973f9c6d7)"
           d="M 189.174102 159.00573  L 195.717765 159.759108  L 202.336898 160.519  L 208.404538 161.983592  L 213.844392 163.839037  L 218.467653 166.080848  L 223.781464 168.197257  L 229.14853 169.990523  L 234.518694 171.654845  L 240.300827 173.143989  L 246.082959 174.629825  L 251.107806 176.871583  L 256.129259 179.096134  L 260.732537 181.695466  L 265.024309 184.393079  L 269.134188 187.300695  L 272.456212 190.995933  L 275.670575 194.972598  L 277.037766 200.481796  L 277.877978 205.840684  L 277.854155 210.761143  L 277.873646 215.900816  L 274.533272 219.631088  L 269.920754 221.344163  L 264.753184 223.708704  L 257.715551 223.334851  L 253.189507 220.724512  L 249.499286 217.368793  L 243.717153 215.878819  L 239.408845 212.931324  L 234.663888 210.683307  L 229.718755 208.449205  L 224.773622 206.215618  L 220.153817 203.618392  L 215.318939 201.184041  L 210.775224 198.739469  L 205.95251 196.195255  L 201.349269 193.595526  L 196.776827 191.326125  L 191.413194 189.474914  L 187.313246 186.345163  L 183.756806 182.701714  L 179.983532 179.45835  L 176.63565 175.770367  L 172.965031 172.751528  L 169.283634 169.205055  L 167.034501 164.443347  L 170.019348 160.42327  L 174.9465 157.896828  L 189.174102 159.00573  "
           style="fill:none;stroke:#000000;stroke-linecap:square;"
           id="path23" />
      </g>
      <g
         id="line2d_4">
        <path
           clip-path="url(#p4973f9c6d7)"
           d="M 319.427956 36.340788  L 321.001359 42.374204  L 321.837283 48.789306  L 322.258374 55.220098  L 323.511336 61.61951  L 323.507274 68.034612  L 323.90842 74.077714  L 325.149791 80.121615  L 325.583193 86.907918  L 326.007261 93.539135  L 326.838709 100.110122  L 326.418254 106.897224  L 326.097063 113.331306  L 326.007861 120.099429  L 325.173908 126.631662  L 324.382316 133.273163  L 323.462636 139.344735  L 323.050305 146.131837  L 321.127452 151.768233  L 319.710286 157.474041  L 316.312121 161.653055  L 313.44698 166.212245  L 308.601735 169.370328  L 304.266942 166.054942  L 298.354308 164.896557  L 292.551968 164.946059  L 289.364203 160.629471  L 289.199214 154.52689  L 288.791178 148.174041  L 289.628676 141.758939  L 291.725334 136.459837  L 292.566536 130.044735  L 294.244919 124.373633  L 294.090385 118.315794  L 294.050853 112.672714  L 295.073175 106.616327  L 295.926068 100.201224  L 295.514713 93.414122  L 294.837535 86.99023  L 293.819924 80.583918  L 293.402925 74.540816  L 292.977321 67.753714  L 292.563571 60.966612  L 292.141392 54.17951  L 294.23574 48.88056  L 298.406582 45.174666  L 301.968674 41.261124  L 306.358069 38.101111  L 309.706328 34.008  L 319.427956 36.340788  "
           style="fill:none;stroke:#000000;stroke-linecap:square;"
           id="path26" />
      </g>
      <g
         id="line2d_5">
        <path
           clip-path="url(#p4973f9c6d7)"
           d="M 173.281041 57.826657  L 179.985489 62.297123  L 184.987628 68.626776  L 190.427157 74.184298  L 195.495037 79.807179  L 200.944149 85.393347  L 206.745027 90.924857  L 211.841537 96.570608  L 216.868846 102.54219  L 222.648561 108.037998  L 229.02454 112.590907  L 234.363625 118.454603  L 239.361337 124.414966  L 244.530038 130.105916  L 250.668601 135.20076  L 256.256969 140.549306  L 260.686757 147.225061  L 264.488952 154.175388  L 267.591034 161.757005  L 268.258823 171.055837  L 262.652143 176.846727  L 252.181102 176.469973  L 242.754074 177.969394  L 233.545783 175.732408  L 225.37148 172.747381  L 219.085439 167.90475  L 211.56952 163.984463  L 204.255297 160.104812  L 198.157333 155.046033  L 191.863848 150.20776  L 185.414491 145.598586  L 178.299184 141.507324  L 171.735153 137.032202  L 165.457409 131.954624  L 159.891893 126.370286  L 154.024082 121.420808  L 148.164829 116.214023  L 141.05061 112.120408  L 134.437408 107.655049  L 127.658196 103.193398  L 120.202622 99.166776  L 118.040943 93.581143  L 123.001456 87.250831  L 129.752011 83.149959  L 135.192257 77.532232  L 141.859719 72.723432  L 146.914042 67.116187  L 153.607939 62.652085  L 159.890233 57.816  L 173.281041 57.826657  "
           style="fill:none;stroke:#000000;stroke-linecap:square;"
           id="path29" />
      </g>
      <g
         id="line2d_6">
        <path
           clip-path="url(#p4973f9c6d7)"
           d="M 206.740543 33.638126  L 213.857942 35.499543  L 221.579357 36.625575  L 229.590643 37.738565  L 237.173121 39.485379  L 242.647843 42.888171  L 246.485382 47.772  L 250.240629 52.611126  L 253.605477 57.922286  L 257.139046 62.826612  L 260.951571 67.718286  L 264.500065 72.718143  L 267.431679 78.294756  L 270.3645 83.872909  L 273.350639 89.505925  L 276.622071 95.021314  L 278.891438 101.154  L 280.797107 107.876571  L 282.059914 114.997714  L 281.7198 122.4696  L 279.54825 128.496  L 276.983633 134.498612  L 272.033901 138.527922  L 264.744643 138.1432  L 256.733357 137.016249  L 250.433438 134.169  L 244.895786 131.072676  L 239.814 127.3552  L 234.318313 123.95433  L 229.658969 119.814735  L 225.593857 115.099169  L 220.989653 111.002338  L 216.511806 106.649224  L 212.19422 102.450686  L 208.008 97.985236  L 203.764321 93.468952  L 199.224099 89.062806  L 195.037647 84.598124  L 190.613773 80.293151  L 186.665617 75.670116  L 182.480513 71.205655  L 177.882246 66.744  L 174.956749 61.162102  L 172.869701 55.477714  L 177.043484 50.753594  L 180.810099 45.915889  L 184.578498 41.078214  L 189.117473 36.674521  L 193.36887 32.52  L 206.740543 33.638126  "
           style="fill:none;stroke:#000000;stroke-linecap:square;"
           id="path32" />
      </g>
      <g
         id="line2d_7">
        <path
           clip-path="url(#p4973f9c6d7)"
           d="M 269.10268 53.354222  L 270.759276 55.959504  L 272.872499 58.196038  L 275.432478 59.683592  L 274.565418 56.98849  L 273.721425 53.549388  L 277.359429 52.989353  L 281.233607 54.824816  L 283.841908 56.340443  L 284.372506 53.563939  L 287.533574 51.605878  L 291.263878 51.131721  L 295.042249 52.304327  L 295.448007 55.371429  L 296.72089 58.200527  L 297.984077 61.178854  L 299.650659 64.944735  L 299.238153 68.229282  L 300.07373 71.213399  L 300.902239 74.890041  L 300.554578 77.594253  L 300.909306 81.632485  L 301.325072 84.835347  L 301.324984 88.274449  L 301.737506 92.085551  L 299.914809 95.519773  L 296.714928 97.610985  L 295.533272 100.909453  L 291.716169 102.083465  L 288.350925 102.072431  L 284.764316 101.709107  L 280.058327 101.707737  L 277.447114 104.262857  L 275.82326 100.474531  L 274.975211 96.291429  L 272.959794 93.222841  L 271.176423 90.149794  L 269.399388 87.572597  L 266.605692 84.76702  L 265.0141 82.070849  L 262.814952 79.365666  L 260.342354 76.309714  L 258.655854 73.053901  L 257.402151 69.80351  L 258.672122 65.992724  L 259.49866 62.553306  L 261.37656 59.119334  L 261.578278 56.320608  L 261.598026 52.608  L 269.10268 53.354222  "
           style="fill:none;stroke:#000000;stroke-linecap:square;"
           id="path35" />
      </g>
      <g
         id="line2d_8">
        <path
           clip-path="url(#p4973f9c6d7)"
           d="M 327.17446 30.197922  L 328.74952 30.29081  L 330.738493 31.133248  L 331.461187 33.271592  L 331.462735 35.78449  L 331.463076 38.297388  L 331.880651 40.438286  L 331.463713 42.579184  L 331.463527 45.092082  L 331.880051 47.23298  L 331.880964 49.745878  L 331.880741 51.514776  L 331.881559 54.027673  L 331.880356 56.540571  L 331.869379 59.053469  L 332.290057 61.194367  L 332.705092 63.335265  L 333.127811 65.476163  L 332.299043 67.480638  L 331.831901 68.64101  L 330.269786 70.081467  L 329.368657 71.577555  L 327.965687 72.928405  L 327.279601 74.176408  L 326.075391 75.621008  L 324.762881 76.784963  L 323.346797 78.045471  L 321.009185 77.530704  L 320.17271 75.709959  L 319.752775 73.569061  L 319.163064 71.793873  L 318.84384 69.651673  L 318.91378 67.518367  L 318.497268 65.377469  L 318.493107 63.022551  L 317.661408 61.095673  L 317.26867 58.954396  L 317.242127 56.441878  L 317.240125 53.92898  L 316.82492 51.788082  L 316.82336 49.275184  L 316.822298 46.762286  L 317.0174 44.251716  L 317.658272 42.48049  L 318.076833 40.332071  L 318.800168 38.200413  L 319.333257 36.429796  L 319.753597 34.288898  L 320.169348 32.148  L 327.17446 30.197922  "
           style="fill:none;stroke:#000000;stroke-linecap:square;"
           id="path38" />
      </g>
      <g
         id="line2d_9">
        <path
           clip-path="url(#p4973f9c6d7)"
           d="M 346.109276 34.023184  L 346.107678 39.618367  L 345.271389 44.469551  L 345.269168 49.320735  L 345.689376 54.469356  L 346.527396 59.305822  L 347.902448 63.511448  L 349.027197 68.353469  L 349.609776 73.212245  L 349.863842 78.799837  L 349.446765 84.02302  L 349.854827 89.246204  L 350.275324 94.469388  L 350.690344 99.692571  L 351.526276 104.543755  L 351.921938 109.766939  L 352.220904 115.006391  L 352.752061 120.213306  L 349.847045 123.283824  L 348.697024 127.29649  L 346.932064 131.097203  L 343.639366 133.996286  L 337.768622 133.667451  L 333.566541 133.312549  L 328.527459 132.201713  L 325.163542 129.573351  L 323.05392 125.84525  L 321.44475 121.374857  L 320.605852 116.523673  L 320.193656 111.30049  L 320.189133 106.449306  L 319.357278 101.598122  L 319.353756 96.002939  L 319.347821 90.407755  L 319.345399 84.812571  L 319.345867 79.217388  L 319.337541 73.622204  L 318.08443 69.14302  L 317.665001 63.919837  L 317.814251 59.065806  L 316.8261 54.217469  L 316.826131 49.366286  L 319.331164 45.912779  L 321.755286 42.270326  L 322.679528 38.532735  L 323.934175 34.053551  L 326.827837 30.662178  L 331.867108 30.307148  L 337.743 30.663235  L 346.109276 34.023184  "
           style="fill:none;stroke:#000000;stroke-linecap:square;"
           id="path41" />
      </g>
      <g
         id="line2d_10">
        <path
           clip-path="url(#p4973f9c6d7)"
           d="M 300.248816 61.913054  L 305.935365 62.657954  L 309.37695 66.089648  L 312.197357 70.327347  L 314.294051 74.928506  L 316.580171 79.194904  L 318.059793 84.546857  L 319.01853 89.914081  L 321.417704 94.280948  L 323.499765 99.109898  L 326.016459 103.207288  L 329.330296 106.560468  L 333.12982 109.90038  L 334.37863 115.369714  L 335.638258 120.686071  L 337.53802 125.352104  L 339.368267 130.334564  L 340.078439 136.050721  L 336.470868 139.27489  L 330.52834 138.967213  L 328.090952 143.216571  L 329.337129 148.576914  L 331.438276 153.192245  L 328.611918 157.403184  L 322.173092 158.227385  L 317.248091 156.009765  L 313.490498 152.675526  L 309.722492 149.540571  L 308.047239 144.552735  L 307.212429 139.564898  L 302.734194 138.143446  L 296.328582 137.794965  L 291.718094 135.556063  L 288.426547 131.887653  L 285.86574 127.645714  L 283.760504 123.276267  L 280.850814 119.158041  L 279.368656 114.161094  L 277.91212 108.810367  L 277.503448 102.706531  L 277.500581 97.718694  L 279.168411 92.730857  L 281.904491 88.497809  L 281.68868 82.755184  L 283.499089 77.771143  L 285.85501 73.441988  L 290.035708 70.470073  L 292.551747 66.523837  L 295.897144 63.024  L 300.248816 61.913054  "
           style="fill:none;stroke:#000000;stroke-linecap:square;"
           id="path44" />
      </g>
      <g
         id="line2d_11">
        <path
           clip-path="url(#p4973f9c6d7)"
           d="M 313.282102 58.569025  L 315.974737 60.420666  L 317.923968 62.524987  L 318.573992 65.715762  L 319.73204 68.884898  L 320.992987 71.584951  L 321.827914 74.874857  L 322.25463 78.281061  L 323.085614 81.608816  L 323.915418 84.613557  L 324.732277 87.970776  L 324.766188 90.94298  L 324.282673 94.254056  L 323.091071 95.784156  L 323.914358 99.206694  L 322.664799 102.081153  L 321.417558 105.045291  L 318.107663 106.162112  L 315.138047 106.539418  L 312.205959 108.011122  L 309.464357 107.284125  L 307.180653 107.294071  L 305.92616 109.521416  L 302.081496 109.425306  L 299.243763 108.02999  L 296.739395 106.172803  L 294.638964 104.305118  L 291.727929 102.812057  L 290.034073 100.588992  L 287.309821 98.903628  L 285.815507 96.466934  L 285.699311 93.298846  L 287.528584 91.227673  L 288.251493 88.424905  L 290.572071 86.466859  L 294.21412 87.210103  L 294.223343 84.594658  L 292.561935 82.018776  L 291.717911 78.837796  L 291.289776 75.682495  L 293.389077 73.818073  L 293.816633 71.154857  L 293.82135 67.973878  L 296.314128 66.005202  L 295.90421 62.727918  L 297.724077 60.29655  L 300.03642 58.23475  L 303.421954 58.56257  L 305.5185 60.441882  L 313.282102 58.569025  "
           style="fill:none;stroke:#000000;stroke-linecap:square;"
           id="path47" />
      </g>
    </g>
  </g>
  <defs
     id="defs421">
    <clipPath
       id="p4973f9c6d7">
      <rect
         height="223.2"
         width="334.8"
         x="54.0"
         y="28.8"
         id="rect424" />
    </clipPath>
  </defs>
</svg>
